# xmcd
#
# Track frame offsets:
# 150
# 7436
# 10362
# 13982
# 17505
# 22434
# 24753
# 31737
# 34256
# 36897
# 40647
# 46862
# 49187
# 62756
# 67773
# 73286
# 78377
# 87070
# 89678
# 93526
# 99022
# 103975
# 109280
# 114178
# 118074
# 123065
# 125620
# 127859
# 130226
# 135446
# 137962
# 140620
# 144107
# 146407
# 150974
# 155795
# 160809
#
# Disc length: 2307 seconds
#
#
# Revision: 0
# Processed by: cddbd v1.5.2PL0 Copyright (c) Steve Scherf et al.
# Submitted via: FreeRIP 2.951 
#
DISCID=f5090125
DTITLE=Darek k narozeninam
DYEAR=2008
DGENRE=Freestyle
TTITLE0=Co ti dam k narozeninam
TTITLE1=Dnes naladicku mam
TTITLE2=Kdybych ja vedel
TTITLE3=Az pujdu od tebe rano
TTITLE4=Laska nehnevana
TTITLE5=Tenkrat nam valcik hral
TTITLE6=Jiriny
TTITLE7=Fialenka, fiala
TTITLE8=Zahrajte tu moji
TTITLE9=Proc me sidis
TTITLE10=Devce jako ruze
TTITLE11=Prijdi k nam
TTITLE12=Bile konvalinky
TTITLE13=Akaty bile
TTITLE14=Nejhezci koutek
TTITLE15=Dva satecky
TTITLE16=Do tvych modrych oci
TTITLE17=Polka bez kapelnika
TTITLE18=Nedelej si z toho nic
TTITLE19=Modry tulipan
TTITLE20=Bezejmenna
TTITLE21=Skrivanek zpival
TTITLE22=Stesti v pisni
TTITLE23=Vstavej, moje nejmilejsi
TTITLE24=Dnes zvecera
TTITLE25=Malo mam, malo dam
TTITLE26=Ja a muj pes
TTITLE27=Mlynske kolo
TTITLE28=Jak se muzes ptat
TTITLE29=Co mi das ma mila
TTITLE30=Kvetinova polka
TTITLE31=Zeleny jalovec
TTITLE32=A nechod jeste spat
TTITLE33=Kvetou maky v poli
TTITLE34=Modra kukadla
TTITLE35=Zelena se trava
TTITLE36=Co ti dam k narozeninam
EXTD=
EXTT0=
EXTT1=
EXTT2=
EXTT3=
EXTT4=
EXTT5=
EXTT6=
EXTT7=
EXTT8=
EXTT9=
EXTT10=
EXTT11=
EXTT12=
EXTT13=
EXTT14=
EXTT15=
EXTT16=
EXTT17=
EXTT18=
EXTT19=
EXTT20=
EXTT21=
EXTT22=
EXTT23=
EXTT24=
EXTT25=
EXTT26=
EXTT27=
EXTT28=
EXTT29=
EXTT30=
EXTT31=
EXTT32=
EXTT33=
EXTT34=
EXTT35=
EXTT36=
PLAYORDER=
